<svg viewBox="27.5165 3.12 44.70363636363636 93.87519999999999" version="1.1" xmlns="http://www.w3.org/2000/svg" style="max-height: 500px" width="44.70363636363636" height="93.87519999999999">
 <path d="m70.375 29.656c-0.20312-0.46875-0.4375-0.92188-0.67188-1.3438-1.4648-2.4766-3.7891-4.3281-6.5312-5.2031-2.2773-0.81641-3.7969-2.9727-3.7969-5.3906v-6.7812c-0.003906-0.86328-0.69922-1.5586-1.5625-1.5625h-15.625c-0.86328 0.003906-1.5586 0.69922-1.5625 1.5625v6.7812c-0.019531 1.5117-0.62109 2.9609-1.6719 4.0469-0.64453 0.62891-1.4258 1.1016-2.2812 1.375-2.6875 0.84375-4.9531 2.6758-6.3438 5.125-1.4414 2.5781-2.1992 5.4844-2.2031 8.4375v52.359c0 4.3125 3.5 7.8125 7.8125 7.8125h28.125c4.3125 0 7.8125-3.5 7.8125-7.8125v-52.359c-0.003906-2.4297-0.51562-4.8281-1.5-7.0469zm-1.625 59.406c-0.007812 2.5859-2.1016 4.6797-4.6875 4.6875h-28.125c-2.5859-0.007812-4.6797-2.1016-4.6875-4.6875v-52.359c0.003906-2.418 0.62109-4.793 1.7969-6.9062 1.0117-1.7656 2.6523-3.082 4.5938-3.6875 1.3281-0.42188 2.5312-1.1562 3.5156-2.1406 1.6523-1.6602 2.5859-3.9062 2.5938-6.25v-5.2188h12.5v5.2188c0.007812 3.7305 2.3477 7.0625 5.8594 8.3281 2.0195 0.63672 3.7461 1.9766 4.8594 3.7812 0.20312 0.35938 0.38672 0.73047 0.54688 1.1094 0.8125 1.8125 1.2344 3.7773 1.2344 5.7656z"/>
 <path d="m59.375 12.5h-18.75c-0.41406 0-0.8125-0.16406-1.1055-0.45703s-0.45703-0.69141-0.45703-1.1055v-6.25c0-0.41406 0.16406-0.8125 0.45703-1.1055s0.69141-0.45703 1.1055-0.45703h18.75c0.41406 0 0.8125 0.16406 1.1055 0.45703s0.45703 0.69141 0.45703 1.1055v6.25c0 0.41406-0.16406 0.8125-0.45703 1.1055s-0.69141 0.45703-1.1055 0.45703zm-17.188-3.125h15.625v-3.125h-15.625z"/>
 <path d="m68.75 39.5c-0.66406-0.28906-1.3828-0.4375-2.1094-0.4375h-33.281c-1.3906-0.003906-2.7227 0.54688-3.707 1.5273-0.98047 0.98438-1.5312 2.3164-1.5273 3.707v25.469c-0.003906 1.3906 0.54688 2.7227 1.5273 3.707 0.98438 0.98047 2.3164 1.5312 3.707 1.5273h33.281c1.3906 0.003906 2.7227-0.54688 3.707-1.5273 0.98047-0.98438 1.5312-2.3164 1.5273-3.707v-25.469c0-2.0781-1.2227-3.957-3.125-4.7969zm-21.875 27.688h-5.6719c-1.2852 0.027344-2.4883-0.63281-3.1562-1.7344-0.52734-0.92969-0.50391-2.0742 0.0625-2.9844l1.9219-3.1562-0.15625 0.03125c-0.85156 0.15234-1.6602-0.41406-1.8125-1.2656s0.41406-1.6602 1.2656-1.8125l3.1406-0.57812c0.84766-0.14062 1.6523 0.42188 1.8125 1.2656l0.57812 3.1406c0.14062 0.84766-0.42188 1.6523-1.2656 1.8125-0.09375 0.019531-0.1875 0.027344-0.28125 0.03125-0.36328-0.003906-0.71484-0.13281-1-0.35938l-1.4688 2.3906c0.10938 0.066406 0.23438 0.10156 0.35938 0.09375h5.6719c0.86328 0 1.5625 0.69922 1.5625 1.5625s-0.69922 1.5625-1.5625 1.5625zm3.5625-18.5c-0.089844-0.15625-0.25781-0.25-0.4375-0.25s-0.34766 0.09375-0.4375 0.25l-2.8281 4.6562c-0.45312 0.73828-1.418 0.96875-2.1562 0.51562s-0.96875-1.418-0.51562-2.1562l2.8281-4.6406c0.66016-1.0859 1.8398-1.75 3.1094-1.75 1.2656-0.003906 2.4414 0.66406 3.0938 1.75l1.5 2.4375c0.35938-0.53516 1.0156-0.78516 1.6406-0.625 0.40625 0.09375 0.75391 0.34766 0.96875 0.70312 0.21484 0.35938 0.27734 0.78516 0.17188 1.1875l-0.76562 3.0938c-0.097656 0.40234-0.35156 0.75-0.70312 0.96875-0.24609 0.14062-0.52734 0.21484-0.8125 0.21875-0.125 0-0.25391-0.015625-0.375-0.046875l-3.0938-0.76562c-0.83594-0.20703-1.3477-1.0547-1.1406-1.8906 0.16797-0.67578 0.77344-1.1484 1.4688-1.1562zm11.516 16.766c-0.66797 1.1016-1.8711 1.7617-3.1562 1.7344h-2.9062c0.33984 0.67969 0.14062 1.5078-0.47656 1.957-0.61719 0.44531-1.4688 0.37891-2.0078-0.16016l-2.25-2.25c-0.60938-0.61328-0.60938-1.6055 0-2.2188l2.25-2.25c0.61328-0.60938 1.6055-0.60938 2.2188 0 0.46875 0.47656 0.57422 1.2031 0.26562 1.7969h2.9062c0.125 0.007812 0.25-0.027344 0.35938-0.09375l-3.0938-5.0781c-0.44141-0.73828-0.20312-1.6914 0.53125-2.1406 0.35156-0.21875 0.77734-0.28516 1.1797-0.1875 0.39844 0.097656 0.74609 0.34766 0.96094 0.70312l3.1562 5.2031c0.56641 0.91016 0.58984 2.0547 0.0625 2.9844z"/>
<text fill="#000000" font-family="Arbeit Regular, Helvetica, Arial-Unicode, Arial, Sans-serif" font-weight="bold" font-size="5.0" y="117.5" x="0.0">Created by Sandiatresna</text><text fill="#000000" font-family="Arbeit Regular, Helvetica, Arial-Unicode, Arial, Sans-serif" font-weight="bold" font-size="5.0" y="122.5" x="0.0">from Noun Project</text></svg>